<?xml version="1.0" encoding="UTF-8"?>
<svg width="14px" height="15px" viewBox="0 0 14 15" version="1.1" xmlns="http://www.w3.org/2000/svg" xmlns:xlink="http://www.w3.org/1999/xlink">
    <title>apk (1)</title>
    <g id="Page-1" stroke="none" stroke-width="1" fill="none" fill-rule="evenodd">
        <g id="apk-(1)" transform="translate(0.323000, 0.000000)" fill="#FFFFFF" fill-rule="nonzero">
            <path d="M2.04554752,1.36300585 L8.86402862,1.36300585 L8.86402862,4.09039189 L11.5914147,4.09039189 L11.5914147,4.77223041 L12.9551237,4.77223041 L12.9551237,3.12697097 L9.8281527,0 L2.04554752,0 C1.29345723,0 0.681838521,0.610947515 0.681838521,1.363709 L0.681838521,4.77296553 L2.04554752,4.77296553 L2.04554752,1.36300585 Z" id="Path"></path>
            <path d="M11.5914147,13.636291 L2.04554752,13.636291 L2.04554752,12.9544525 L0.681838521,12.9544525 L0.681838521,13.636291 C0.681838521,14.3883813 1.29345723,15 2.04554752,15 L11.5914466,15 C12.3435369,15 12.9551556,14.3883813 12.9551556,13.636291 L12.9551556,12.9544525 L11.5914466,12.9544525 L11.5914466,13.636291 L11.5914147,13.636291 Z" id="Path"></path>
            <path d="M1.36367704,10.2270664 L2.72738605,10.2270664 L2.72738605,11.5907754 L4.09109505,11.5907754 L4.09109505,6.8178099 C4.09109505,6.44142916 3.78563727,6.13597138 3.40925653,6.13597138 L0.681838521,6.13597138 C0.305457776,6.13597138 0,6.44142916 0,6.8178099 L0,11.5907754 L1.363709,11.5907754 L1.363709,10.2270664 L1.36367704,10.2270664 Z M1.36367704,7.49964842 L2.72738605,7.49964842 L2.72738605,8.86335743 L1.36367704,8.86335743 L1.36367704,7.49964842 Z" id="Shape"></path>
            <polygon id="Path" points="13.6369622 6.13597138 11.9718865 6.13597138 10.9095761 7.64967655 10.9095761 6.13597138 9.54586714 6.13597138 9.54586714 11.5907435 10.9095761 11.5907435 10.9095761 10.0777415 11.9718865 11.5907435 13.6369622 11.5907435 11.7230329 8.86335743"></polygon>
            <path d="M4.77293357,6.13597138 L4.77293357,11.5907754 L6.13664257,11.5907754 L6.13664257,10.2270664 L6.8184811,10.2270664 C7.94624898,10.2270664 8.86402862,9.30928679 8.86402862,8.1815189 C8.86402862,7.05375102 7.94624898,6.13597138 6.8184811,6.13597138 L4.77293357,6.13597138 Z M7.50031962,8.1815189 C7.50031962,8.55789965 7.19415868,8.86335743 6.8184811,8.86335743 L6.13664257,8.86335743 L6.13664257,7.49964842 L6.8184811,7.49964842 C7.19419065,7.49964842 7.50031962,7.80648055 7.50031962,8.1815189 Z" id="Shape"></path>
        </g>
    </g>
</svg>