<svg width="162" height="24" viewBox="0 0 162 24" fill="none" xmlns="http://www.w3.org/2000/svg">
<path d="M11.1793 15.7935C9.94061 17.1252 8.67094 17.7755 7.27739 17.7755C4.61416 17.7755 2.53932 15.5768 2.53932 12.7587C2.53932 9.90968 4.55223 7.71097 7.15352 7.71097C9.07352 7.71097 10.3122 8.7329 11.1484 9.63097L11.3032 9.81677L12.9135 8.11355L12.7587 7.95871C11.6748 6.8129 10.0645 5.48129 7.18449 5.48129C3.22061 5.48129 -3.05176e-05 8.76387 -3.05176e-05 12.7897C-3.05176e-05 16.8774 3.15868 20.0981 7.18449 20.0981C10.0955 20.0981 11.7677 18.6426 12.8825 17.4039L13.0374 17.2181L11.3651 15.6697L11.1793 15.7935Z" fill="#394247"/>
<path d="M21.5845 5.45033C19.7574 5.45033 18.2709 6.16258 17.1871 7.5871V1.90735e-06L14.7096 1.20774V19.6955H17.1871V11.7368C17.1871 9.38323 18.7664 7.74194 21.0271 7.74194C23.2258 7.74194 24.5264 9.19742 24.5264 11.5819V19.7265H27.0038V11.0865C27.0038 7.64904 24.898 5.45033 21.5845 5.45033Z" fill="#394247"/>
<path d="M35.2722 5.51226C33.1354 5.51226 31.587 6.06968 30.2554 6.68903L30.0696 6.78194L30.8438 8.85678L31.0605 8.76387C32.516 8.11355 33.7238 7.80387 35.0864 7.80387C37.5638 7.80387 38.8644 8.98065 38.8644 11.2413V11.3652C37.8425 11.0865 36.6657 10.8697 34.9625 10.8697C31.1844 10.8697 28.9547 12.6039 28.9547 15.5148C28.9547 18.4568 31.618 20.0052 34.2502 20.0052C36.5109 20.0052 37.9664 19.0452 38.8954 18.0852V19.6955H41.3418V11.2103C41.3418 9.41419 40.8464 8.05161 39.8554 7.06065C38.8025 6.06968 37.2231 5.51226 35.2722 5.51226ZM38.8644 13.44V14.5239C38.8644 16.4748 37.0373 17.9303 34.5909 17.9303C33.0735 17.9303 31.4322 17.1561 31.4322 15.4529C31.4322 13.8736 32.8257 12.9135 35.1483 12.9135C36.7586 12.9135 38.0283 13.1923 38.8644 13.44Z" fill="#394247"/>
<path d="M51.1277 5.45032C49.3006 5.45032 47.8142 6.16258 46.7303 7.5871V5.76H44.2529V19.7574H46.7303V11.7368C46.7303 9.38323 48.3096 7.74194 50.5703 7.74194C52.769 7.74194 54.0696 9.19742 54.0696 11.5819V19.7265H56.5471V11.0865C56.5471 7.64903 54.4103 5.45032 51.1277 5.45032Z" fill="#394247"/>
<path d="M70.2348 7.74194C68.9032 6.22452 67.2 5.45032 65.1871 5.45032C63.5148 5.45032 61.8425 6.10065 60.6348 7.21548C59.3032 8.45419 58.5909 10.1574 58.5909 12.0774C58.5909 13.9665 59.3032 15.7006 60.6348 16.9394C61.8425 18.0542 63.5148 18.7045 65.1871 18.7045C67.2 18.7045 68.8722 17.8994 70.2658 16.289V17.2181C70.2658 20.129 68.5625 21.8013 65.5896 21.8013C63.7626 21.8013 62.0593 21.2439 60.5109 20.129L60.2942 19.9742L59.1483 21.9561L59.3342 22.08C61.1613 23.3497 63.298 24 65.6206 24C67.8813 24 69.7084 23.3497 70.9471 22.111C72.1238 20.9032 72.7432 19.2619 72.7432 17.1561V5.72903H70.2658V7.74194H70.2348ZM70.3277 12.0465C70.3277 14.8026 67.9122 16.4439 65.5896 16.4439C63.0813 16.4439 61.1303 14.5239 61.1303 12.0774C61.1303 9.53806 62.9884 7.71097 65.5896 7.71097C67.9122 7.68 70.3277 9.32129 70.3277 12.0465Z" fill="#394247"/>
<path d="M81.7548 5.45032C77.9148 5.45032 75.0348 8.57806 75.0348 12.7587C75.0348 16.9394 78.0387 20.0671 82.0335 20.0671C84.387 20.0671 86.1522 19.2619 87.7935 17.4348L87.9483 17.249L86.338 15.8245L86.1832 15.9794C84.9754 17.249 83.6748 17.8065 82.0954 17.8065C79.7109 17.8065 77.9457 16.1961 77.6051 13.7806H88.289L88.3199 13.5639C88.3509 13.2542 88.3509 13.0374 88.3509 12.8516C88.3199 8.42323 85.6877 5.45032 81.7548 5.45032ZM85.7806 11.7058H77.5741C77.9457 9.29032 79.618 7.61806 81.7238 7.61806C84.2941 7.61806 85.5019 9.66194 85.7806 11.7058Z" fill="#394247"/>
<path d="M90.6425 19.7265H93.1199V0.867096L90.6425 2.10581V19.7265Z" fill="#394247"/>
<path d="M96.3716 19.7265H98.849V1.90735e-06L96.3716 1.23871V19.7265Z" fill="#394247"/>
<path d="M112.041 5.72903L107.83 16.6297L103.061 5.72903H100.335L106.591 19.4477C105.755 21.3677 105.043 21.7394 104.083 21.7394C103.277 21.7394 102.72 21.6155 102.07 21.2748L101.853 21.151L100.986 23.1948L101.172 23.2877C102.193 23.7832 103.061 24 104.144 24C106.343 24 107.706 22.8542 108.852 20.0361L114.673 5.72903H112.041Z" fill="#394247"/>
<path d="M132.634 7.09378C131.724 6.18395 130.622 5.72903 129.345 5.72903H122.346L124.3 8.0736H129.345C129.974 8.0736 130.517 8.30106 130.972 8.75597C131.444 9.21089 131.672 9.77079 131.672 10.4007C131.672 11.0481 131.427 11.5905 130.972 12.0454C130.517 12.5003 129.974 12.7277 129.345 12.7277H122.346V19.7265H124.673V15.0723H129.345C130.622 15.0723 131.724 14.6174 132.634 13.7076C133.561 12.7977 133.999 11.6779 133.999 10.4007C133.999 9.12341 133.544 8.02111 132.634 7.09378Z" fill="#10D078"/>
<path d="M144.192 13.0252C144.752 12.2378 145.014 11.363 145.014 10.3832C145.014 9.10591 144.559 8.02111 143.649 7.09378C142.74 6.18395 141.637 5.72903 140.36 5.72903H134.219L135.688 8.0736H140.36C140.99 8.0736 141.532 8.30106 141.987 8.75597C142.46 9.21089 142.687 9.75329 142.687 10.3832C142.687 11.0306 142.46 11.5905 141.987 12.0454C141.532 12.5003 140.99 12.7277 140.36 12.7277L138.278 12.7102L142.337 19.7265H145.014L142.145 14.7049C142.967 14.3724 143.649 13.8125 144.192 13.0252Z" fill="#10D078"/>
<path d="M154.465 5.72903C152.523 5.72903 150.878 6.4289 149.531 7.79365C148.166 9.1584 147.467 10.8031 147.467 12.7277C147.467 14.6699 148.166 16.2971 149.531 17.6618C150.896 19.0266 152.523 19.7265 154.465 19.7265C156.407 19.7265 158.035 19.0266 159.399 17.6618C160.782 16.3146 161.482 14.6699 161.482 12.7277C161.482 10.8031 160.782 9.1584 159.399 7.79365C158.035 6.4289 156.407 5.72903 154.465 5.72903ZM154.465 8.0736C155.743 8.0736 156.845 8.52852 157.755 9.43835C158.665 10.3482 159.119 11.4505 159.119 12.7277C159.119 14.005 158.682 15.1073 157.755 16.0346C156.845 16.9445 155.743 17.3819 154.465 17.3819C153.188 17.3819 152.068 16.9445 151.158 16.0346C150.249 15.1248 149.811 14.005 149.811 12.7277C149.811 11.4505 150.249 10.3482 151.158 9.43835C152.086 8.51102 153.188 8.0736 154.465 8.0736Z" fill="#10D078"/>
</svg>
