<svg width="14" height="14" viewBox="0 0 14 14" fill="none" xmlns="http://www.w3.org/2000/svg">
<path d="M1.3108 0C0.582692 0 0 0.591231 0 1.31079V7.4375H14V1.31079C14 0.591231 13.4209 0 12.6892 0H1.3108ZM0 8.31335V8.74915C0 9.48079 0.591241 10.0634 1.3108 10.0634H12.6892C13.4088 10.0634 14 9.47896 14 8.74915V8.31335H0ZM5.17908 10.9384C5.29251 11.6554 5.23646 12.4543 4.97998 13.125H3.93664C3.35461 13.125 3.35461 14 3.93664 14H10.0633C10.6599 14 10.6599 13.125 10.0633 13.125H9.02001C8.76499 12.4582 8.70974 11.6572 8.82349 10.9384H5.17908Z" fill="white"/>
</svg>
