<svg width="14px" height="15px" viewBox="0 0 14 15" version="1.1" xmlns="http://www.w3.org/2000/svg" xmlns:xlink="http://www.w3.org/1999/xlink">
    <g id="Page-1" stroke="none" stroke-width="1" fill="none" fill-rule="evenodd">
        <rect id="Rectangle" stroke="#979797" fill="#000000" x="-8" y="-6" width="39" height="29"></rect>
        <g id="discord-(1)" fill="#FFFFFF" fill-rule="nonzero">
            <path d="M12.095,0 C12.9875,0 13.7075,0.710625 13.75,1.546875 L13.75,1.546875 L13.75,15 L12.05,13.579375 L11.116875,12.743125 L10.09875,11.869375 L10.524375,13.2475 L1.6125,13.2475 C0.7225,13.2475 0,12.581875 0,11.7 L0,11.7 L0,1.55 C0,0.71375 0.72375,0.001875 1.615625,0.001875 L1.615625,0.001875 Z M5.643125,3.55125 C5.643125,3.55125 4.58125,3.51125 3.435625,4.345 C3.435625,4.345 2.29,6.31 2.29,8.7325 C2.29,8.7325 2.925,9.82 4.66625,9.86125 C4.66625,9.86125 4.920625,9.528125 5.1775,9.235 C4.199375,8.9425 3.81875,8.3575 3.81875,8.3575 L3.81875,8.3575 L4.145625,8.52375 C5.101875,8.911875 6.11375,9.40125 7.91625,9.10875 C8.296875,9.024375 8.678125,8.941875 9.05875,8.774375 C9.30625,8.649375 9.61125,8.524375 9.945625,8.31375 C9.945625,8.31375 9.564375,8.89875 8.545625,9.19125 C8.755625,9.4825 9.050625,9.81625 9.050625,9.81625 C10.4895652,9.78527174 11.2017285,9.03775284 11.4274082,8.8047561 L11.4827845,8.74971727 C11.4960397,8.7380293 11.5041848,8.73347826 11.5075,8.7375 C11.5075,6.31875 10.355,4.35 10.355,4.35 C9.325,3.596875 8.3625,3.563125 8.180625,3.5625 L8.180625,3.5625 L8.064375,3.676875 C9.38,4.051875 10.016875,4.6375 10.016875,4.6375 C8.108125,3.6975 6.04625,3.64375 4.158125,4.38625 C3.86125,4.513125 3.69125,4.59625 3.69125,4.59625 C3.69125,4.59625 4.326875,3.97 5.72875,3.635625 L5.72875,3.635625 Z M8.3175,6.31 C8.76375,6.31 9.12375,6.685 9.12375,7.144375 C9.12375,7.606875 8.761875,7.981875 8.3175,7.981875 C7.873125,7.981875 7.51125,7.606875 7.51125,7.148125 C7.5125,6.685625 7.875,6.311875 8.3175,6.311875 L8.3175,6.311875 Z M5.43375,6.31 C5.878125,6.31 6.2375,6.685 6.2375,7.144375 C6.2375,7.606875 5.875625,7.981875 5.43125,7.981875 C4.986875,7.981875 4.625,7.606875 4.625,7.148125 C4.625,6.685625 4.986875,6.311875 5.43125,6.311875 L5.43125,6.311875 Z" id="Combined-Shape"></path>
        </g>
    </g>
</svg>