<svg width="16" height="16" viewBox="0 0 16 16" fill="none" xmlns="http://www.w3.org/2000/svg">
<g clip-path="url(#clip0)">
<path d="M15.3969 0.604265C14.9941 0.201361 14.5114 0 13.9491 0H2.05315C1.49062 0 1.00807 0.201434 0.605169 0.604265C0.202337 1.00699 0.000976562 1.48961 0.000976562 2.05203V13.9479C0.000976562 14.5102 0.202301 14.9929 0.605169 15.3957C1.00807 15.7985 1.49073 16 2.05315 16H13.9489C14.5112 16 14.994 15.7985 15.3968 15.3957C15.7997 14.9929 16.0009 14.5102 16.0009 13.9479V2.05203C16.0009 1.4895 15.7997 1.00713 15.3969 0.604265ZM5.74595 5.76555C6.37436 5.158 7.1296 4.85408 8.01156 4.85408C8.90033 4.85408 9.65897 5.158 10.2875 5.76555C10.9161 6.37321 11.2302 7.10765 11.2302 7.96873C11.2302 8.82971 10.9161 9.56419 10.2875 10.1717C9.65897 10.7795 8.90059 11.0834 8.01156 11.0834C7.12964 11.0834 6.37447 10.7792 5.74595 10.1717C5.11738 9.56411 4.80314 8.82971 4.80314 7.96873C4.80314 7.10765 5.11738 6.37324 5.74595 5.76555ZM14.1887 13.521C14.1887 13.7014 14.126 13.8523 14.0011 13.9739C13.8759 14.0954 13.7268 14.1562 13.553 14.1562H2.41778C2.23725 14.1562 2.0861 14.0954 1.96467 13.9739C1.84307 13.8526 1.78232 13.7014 1.78232 13.521V6.77071H3.25103C3.1122 7.20827 3.04277 7.66321 3.04277 8.13532C3.04277 9.46896 3.52882 10.6059 4.50104 11.5471C5.47337 12.4879 6.64348 12.9585 8.01152 12.9585C8.91431 12.9585 9.74759 12.7431 10.5117 12.3126C11.2756 11.8818 11.8794 11.2969 12.3242 10.5572C12.7687 9.81761 12.9909 9.01027 12.9909 8.13536C12.9909 7.66324 12.9212 7.20842 12.7824 6.77075H14.1888V13.521H14.1887V13.521ZM14.1887 4.21862C14.1887 4.42002 14.1193 4.59018 13.9801 4.72904C13.8413 4.86802 13.6713 4.93741 13.4698 4.93741H11.6573C11.456 4.93741 11.2857 4.86798 11.1469 4.72904C11.008 4.59018 10.9386 4.42002 10.9386 4.21862V2.50003C10.9386 2.30556 11.008 2.13718 11.1469 1.99478C11.2858 1.85245 11.4561 1.7812 11.6573 1.7812H13.4698C13.6713 1.7812 13.8414 1.85242 13.9801 1.99478C14.1192 2.13718 14.1887 2.30556 14.1887 2.50003V4.21862Z" fill="white"/>
</g>
<defs>
<clipPath id="clip0">
<rect width="16" height="16" fill="white"/>
</clipPath>
</defs>
</svg>
