<svg width="15" height="17" viewBox="0 0 15 17" fill="none" xmlns="http://www.w3.org/2000/svg">
<path d="M13.2044 14.5833C12.5127 15.6167 11.7794 16.625 10.6627 16.6417C9.54597 16.6667 9.18767 15.9833 7.92097 15.9833C6.646 15.9833 6.25433 16.625 5.196 16.6667C4.10433 16.7083 3.27933 15.5667 2.57933 14.5583C1.15433 12.5 0.0626698 8.70831 1.52933 6.15834C2.25433 4.89167 3.55433 4.09167 4.96267 4.06667C6.02933 4.05 7.046 4.79167 7.70437 4.79167C8.35437 4.79167 9.58767 3.9 10.8794 4.03334C11.421 4.05834 12.9377 4.25 13.9127 5.68334C13.8377 5.73334 12.1044 6.75 12.121 8.85831C12.146 11.375 14.3294 12.2167 14.3544 12.225C14.3294 12.2833 14.0044 13.425 13.2044 14.5833ZM8.44597 1.25C9.05437 0.55834 10.0627 0.03334 10.896 0C11.0044 0.975 10.6127 1.95834 10.0294 2.65834C9.45437 3.36667 8.50437 3.91667 7.571 3.84167C7.446 2.88334 7.91267 1.88334 8.44597 1.25Z" fill="#F0F1F5"/>
</svg>
