<svg width="18" height="18" viewBox="0 0 18 18" fill="none" xmlns="http://www.w3.org/2000/svg">
<path d="M11.5142 5.95719C11.1642 6.19053 10.0559 6.82386 9.88923 6.94886C9.56423 7.20719 9.26425 7.19053 8.93925 6.94053C8.77259 6.80719 7.66425 6.17386 7.31425 5.94886C6.91425 5.69053 6.93925 5.36553 7.38092 5.18219C8.74759 4.60719 10.1142 4.64886 11.4726 5.20719C11.8809 5.38219 11.8976 5.70719 11.5142 5.95719ZM17.5309 12.0238C16.7559 10.2822 15.6976 8.69886 14.3309 7.30719C13.8892 6.84886 13.6142 6.33219 13.4476 5.74053C13.3642 5.46553 13.3059 5.18219 13.2476 4.89886C13.0809 4.16553 13.0059 3.41553 12.6642 2.72386C12.0559 1.40719 10.9976 0.723857 9.46423 0.665527C7.95592 0.707187 6.83092 1.34053 6.17259 2.66553C5.99759 3.02386 5.87259 3.39886 5.78925 3.78219C5.64759 4.41553 5.52259 5.07386 5.37259 5.71553C5.24759 6.25719 4.99759 6.72386 4.57259 7.14053C3.23092 8.44886 2.15592 9.94881 1.33925 11.5988C1.22259 11.8405 1.10592 12.0822 1.03092 12.3322C0.872591 12.8822 1.27259 13.2655 1.85592 13.1322C2.22259 13.0572 2.58925 12.9822 2.93925 12.8738C3.28092 12.7488 3.41425 12.8322 3.49759 13.1655C4.03925 14.9572 5.22259 16.2155 7.03092 16.9155C10.4642 18.2155 14.4726 16.3655 15.3392 13.0988C15.3976 12.8738 15.4809 12.7905 15.7309 12.8738C16.1142 12.9905 16.5059 13.0738 16.8976 13.1655C17.3059 13.2405 17.6059 13.0322 17.6642 12.6322C17.6892 12.4155 17.6142 12.2238 17.5309 12.0238Z" fill="#F0F1F5"/>
</svg>
