<svg width="14" height="13" viewBox="0 0 14 13" fill="none" xmlns="http://www.w3.org/2000/svg">
<path fill-rule="evenodd" clip-rule="evenodd" d="M2.13574 3.26497H2.72923V1.71809C2.72923 1.41062 2.92945 1.18657 3.21546 1.18657C3.49195 1.18657 3.66356 1.36295 3.66356 1.64658V3.26497H4.24037V1.70379C4.24037 1.3987 4.43581 1.18657 4.72183 1.18657C5.01262 1.18657 5.1747 1.36533 5.1747 1.67757V3.26497H5.76818V1.52979C5.76818 1.02449 5.44165 0.686035 4.9435 0.686035C4.57882 0.686035 4.2785 0.881481 4.15694 1.1961H4.14264C4.04969 0.871948 3.79465 0.686035 3.4419 0.686035C3.10821 0.686035 2.84841 0.86718 2.74115 1.14367H2.72923V0.738472H2.13574V3.26497ZM7.13348 3.30788C7.46717 3.30788 7.74842 3.14103 7.89381 2.87646H7.90811V3.26497H8.5016V1.52741C8.5016 1.01972 8.09402 0.686035 7.4624 0.686035C6.82124 0.686035 6.43273 1.02211 6.39698 1.4702L6.39459 1.49881H6.94518L6.94995 1.47735C6.98808 1.29144 7.1597 1.16035 7.44095 1.16035C7.74127 1.16035 7.90811 1.31528 7.90811 1.57031V1.74431L7.24789 1.78483C6.63533 1.82296 6.28734 2.0923 6.28734 2.54039V2.54516C6.28734 2.99564 6.62818 3.30788 7.13348 3.30788ZM6.87844 2.52132V2.51894C6.87844 2.31873 7.03814 2.1924 7.33131 2.17333L7.90811 2.13758V2.32826C7.90811 2.62858 7.6507 2.85501 7.30986 2.85501C7.05006 2.85501 6.87844 2.72869 6.87844 2.52132ZM11.3494 2.38785C11.3041 2.9146 10.8775 3.31503 10.2387 3.31503C9.48792 3.31503 9.01837 2.80973 9.01837 1.99934V1.99696C9.01837 1.19134 9.49507 0.686035 10.2316 0.686035C10.8966 0.686035 11.3113 1.10791 11.347 1.61321L11.3494 1.63228H10.7893L10.7845 1.61083C10.7345 1.36533 10.5533 1.1675 10.2387 1.1675C9.86451 1.1675 9.62378 1.48451 9.62378 2.00172V2.00411C9.62378 2.53086 9.8669 2.83595 10.2411 2.83595C10.5414 2.83595 10.7321 2.65718 10.7869 2.39262L10.7917 2.37116H11.3518L11.3494 2.38785ZM7.02769 8.70107C7.02769 11.0545 5.71735 12.5293 3.61566 12.5293C1.50884 12.5293 0.193359 11.0545 0.193359 8.70107V8.69079C0.193359 6.34245 1.51398 4.86768 3.61566 4.86768C5.71221 4.86768 7.02769 6.34245 7.02769 8.69079V8.70107ZM1.13886 8.70107C1.13886 10.5253 2.09464 11.6763 3.61566 11.6763C5.14183 11.6763 6.08219 10.5099 6.08219 8.70107V8.69079C6.08219 6.87173 5.12641 5.72068 3.61566 5.72068C2.09978 5.72068 1.13886 6.86659 1.13886 8.69079V8.70107ZM13.4558 10.3814C13.4558 11.6969 12.4126 12.5293 10.7169 12.5293C9.11366 12.5293 8.02942 11.7431 7.93693 10.4739L7.93179 10.4019H8.85673L8.86701 10.4739C8.97492 11.219 9.69433 11.6763 10.7683 11.6763C11.8371 11.6763 12.5103 11.1933 12.5103 10.4276V10.4225C12.5103 9.76989 12.0838 9.40505 11.0663 9.17896L10.2442 8.99911C8.79507 8.68051 8.11678 8.02791 8.11678 6.94367V6.93853C8.12192 5.72068 9.20102 4.86768 10.7272 4.86768C12.1763 4.86768 13.2348 5.70527 13.317 6.91797L13.3222 6.99505H12.3972L12.3869 6.92311C12.2739 6.16774 11.6419 5.72068 10.7015 5.72068C9.70974 5.72582 9.06228 6.19857 9.06228 6.91284V6.91797C9.06228 7.52433 9.50934 7.90458 10.4754 8.11527L11.2976 8.29512C12.8186 8.62913 13.4558 9.24576 13.4558 10.3762V10.3814Z" fill="white"/>
</svg>
