<svg width="155" height="31" viewBox="0 0 155 31" fill="none" xmlns="http://www.w3.org/2000/svg">
<path fill-rule="evenodd" clip-rule="evenodd" d="M9.88831 19.951H19.7764V10.0629H9.88831V19.951Z" fill="#33CCA0"/>
<path fill-rule="evenodd" clip-rule="evenodd" d="M24.7207 15.0069V24.8953H22.4637H9.88831V29.8393H24.7207C27.4512 29.8393 29.6648 27.6258 29.6648 24.8953V15.0069H24.7207Z" fill="#33CCA0"/>
<path fill-rule="evenodd" clip-rule="evenodd" d="M0 19.9509V24.8952C0 27.6257 2.21354 29.8394 4.94407 29.8394V24.8952V19.9509H0Z" fill="#33CCA0"/>
<path fill-rule="evenodd" clip-rule="evenodd" d="M4.94407 0.1745C2.21353 0.1745 0 2.38804 0 5.11857V15.0069H4.94407V5.11857H9.88831H24.7207V10.0628H29.6648V5.11857C29.6648 2.38804 27.4512 0.1745 24.7207 0.1745H4.94407Z" fill="#33CCA0"/>
<path fill-rule="evenodd" clip-rule="evenodd" d="M38.934 19.2303L42.1872 17.3443C42.7764 18.7116 43.7901 19.6311 45.6526 19.6311C47.4442 19.6311 47.8919 18.9239 47.8919 18.2874C47.8919 17.2735 46.949 16.8727 44.474 16.1892C42.022 15.5058 39.6175 14.3271 39.6175 11.168C39.6175 7.98556 42.3049 6.14667 45.1576 6.14667C47.8686 6.14667 49.9902 7.4433 51.1923 9.87155L48.01 11.734C47.4442 10.5551 46.6663 9.82428 45.1576 9.82428C43.9788 9.82428 43.3893 10.4136 43.3893 11.0736C43.3893 11.8282 43.7901 12.3466 46.3598 13.1246C48.8584 13.879 51.6637 14.7513 51.6637 18.2402C51.6637 21.4226 49.1179 23.3086 45.5347 23.3086C42.0693 23.3086 39.8533 21.6584 38.934 19.2303Z" fill="#3C3D52"/>
<path fill-rule="evenodd" clip-rule="evenodd" d="M57.5577 14.5861V18.7587C57.5577 19.7724 58.43 19.8666 59.986 19.7724V22.9784C55.3655 23.45 54.0217 22.0592 54.0217 18.7587V14.5861H52.1357V11.1916H54.0217V8.95199L57.5577 7.89117V11.1916H59.986V14.5861H57.5577Z" fill="#3C3D52"/>
<path fill-rule="evenodd" clip-rule="evenodd" d="M69.9265 17.085C69.9265 15.4113 68.7476 14.3034 67.2154 14.3034C65.6831 14.3034 64.5045 15.4113 64.5045 17.085C64.5045 18.7587 65.6831 19.8666 67.2154 19.8666C68.7476 19.8666 69.9265 18.7587 69.9265 17.085ZM60.9684 17.085C60.9684 13.5726 63.7502 10.8614 67.2154 10.8614C70.6807 10.8614 73.4623 13.5726 73.4623 17.085C73.4623 20.5976 70.6807 23.3086 67.2154 23.3086C63.7502 23.3086 60.9684 20.5976 60.9684 17.085Z" fill="#3C3D52"/>
<path fill-rule="evenodd" clip-rule="evenodd" d="M74.6809 17.085C74.6809 13.5726 77.3446 10.8614 80.9279 10.8614C83.2147 10.8614 85.242 12.0639 86.2557 13.879L83.1674 15.6708C82.7666 14.8455 81.9181 14.3505 80.8808 14.3505C79.3485 14.3505 78.2169 15.4586 78.2169 17.085C78.2169 18.7116 79.3485 19.8197 80.8808 19.8197C81.9181 19.8197 82.7903 19.3246 83.1674 18.4996L86.2557 20.2675C85.242 22.1064 83.2384 23.3086 80.9279 23.3086C77.3446 23.3086 74.6809 20.5976 74.6809 17.085Z" fill="#3C3D52"/>
<path fill-rule="evenodd" clip-rule="evenodd" d="M94.9786 22.9784L91.2068 17.7687V22.9784H87.6708V7.45903L91.2068 6.47705V16.3542L94.7429 11.1916H98.8685L94.5778 17.085L98.9862 22.9784H94.9786Z" fill="#3C3D52"/>
<path fill-rule="evenodd" clip-rule="evenodd" d="M109.43 17.085C109.43 15.3171 108.251 14.209 106.624 14.209C104.998 14.209 103.819 15.3171 103.819 17.085C103.819 18.8531 104.998 19.961 106.624 19.961C108.251 19.961 109.43 18.8531 109.43 17.085ZM112.966 17.085C112.966 20.5976 110.42 23.3086 107.332 23.3086C105.752 23.3086 104.597 22.7664 103.819 21.8705V27.6933H100.283V11.1916H103.819V12.2995C104.597 11.4037 105.752 10.8614 107.332 10.8614C110.42 10.8614 112.966 13.5726 112.966 17.085Z" fill="#3C3D52"/>
<path fill-rule="evenodd" clip-rule="evenodd" d="M123.142 17.085C123.142 15.4113 121.963 14.3034 120.431 14.3034C118.899 14.3034 117.72 15.4113 117.72 17.085C117.72 18.7587 118.899 19.8666 120.431 19.8666C121.963 19.8666 123.142 18.7587 123.142 17.085ZM114.184 17.085C114.184 13.5726 116.966 10.8614 120.431 10.8614C123.896 10.8614 126.678 13.5726 126.678 17.085C126.678 20.5976 123.896 23.3086 120.431 23.3086C116.966 23.3086 114.184 20.5976 114.184 17.085Z" fill="#3C3D52"/>
<mask id="mask0_9_2998" style="mask-type:alpha" maskUnits="userSpaceOnUse" x="0" y="0" width="155" height="30">
<path fill-rule="evenodd" clip-rule="evenodd" d="M0 24.8394C0 27.6008 2.23858 29.8394 5 29.8394H154.481V0.174438H0V24.8394Z" fill="white"/>
</mask>
<g mask="url(#mask0_9_2998)">
<path fill-rule="evenodd" clip-rule="evenodd" d="M128.093 22.9784H131.629V11.1917H128.093V22.9784Z" fill="#3C3D52"/>
<path fill-rule="evenodd" clip-rule="evenodd" d="M128.093 7.45915L131.629 6.47699V9.83874H128.093V7.45915Z" fill="#3C3D52"/>
<path fill-rule="evenodd" clip-rule="evenodd" d="M145.341 15.7414V22.9784H141.805V16.2603C141.805 14.7985 140.886 14.1149 139.754 14.1149C138.458 14.1149 137.562 14.8693 137.562 16.543V22.9784H134.026V11.1917H137.562V12.2998C138.198 11.4275 139.377 10.8615 140.933 10.8615C143.314 10.8615 145.341 12.5589 145.341 15.7414Z" fill="#3C3D52"/>
<path fill-rule="evenodd" clip-rule="evenodd" d="M152.052 14.5861V18.7587C152.052 19.7724 152.925 19.8666 154.481 19.7724V22.9784C149.86 23.45 148.516 22.0592 148.516 18.7587V14.5861H146.63V11.1916H148.516V8.95205L152.052 7.89124V11.1916H154.481V14.5861H152.052Z" fill="#3C3D52"/>
</g>
</svg>
